<svg xmlns="http://www.w3.org/2000/svg" viewBox="0 0 620 309.07">
  <defs>
    <style>
      .cls-1 {
        fill: #d2d2d2;
      }
    </style>
  </defs>
  <title>test</title>
  <g id="svg_starwars" data-name="svg starwars">
    <g>
      <path class="cls-1" d="M21,107.33v45.72H143.05c2.62-.07,22.45-1,34-17.18a40.26,40.26,0,0,0,7.2-20.71,37.37,37.37,0,0,0,.07-5.17,43,43,0,0,0-7-20.35,44.79,44.79,0,0,0-7.7-9.22,134.06,134.06,0,0,1-11.43-11.81c-.48-.54-1.47-1.66-1.14-2.59.44-1.25,3-1.37,3.47-1.39h58.36v88.42h45V64.63h55.83V24h-184a45.25,45.25,0,0,0-14.15,4.51,38.68,38.68,0,0,0-11.87,8.84c-7.89,9-8.29,20.21-8.24,24.22a45.47,45.47,0,0,0,3.57,16.77c1.25,2.87,3.3,7,9.31,13.83.27.3,2.48,2.46,6.83,6.84a26.61,26.61,0,0,1,3.21,4.34c1.51,2.41,1.55,3.16,1.27,3.57s-1.16.49-1.84.41Z" transform="translate(-21 -24)"/>
      <path class="cls-1" d="M412.86,24H341.37l-38,129.05h46.23l5.5-19.2h44.71l6.82,19.2h45.6ZM367.14,98.48l11.05-35.36,11.05,35.36Z" transform="translate(-21 -24)"/>
      <polygon class="cls-1" points="1.55 180.08 40.96 309 83.4 309 99.38 258.5 115.23 309 157.67 309 196.83 180.08 149.32 180.08 138.47 215.45 127.36 180.08 74.05 180.08 63.7 214.44 53.34 180.08 1.55 180.08"/>
      <path class="cls-1" d="M574.55,107.58a5.31,5.31,0,0,1-3.56-1.53,3.37,3.37,0,0,1-1.08-2c-.07-2.08,3.88-3.77,5.06-4.31,9.49-4.38,15.3-15.81,16.12-17.43a31.46,31.46,0,0,0,3.16-16.17,39.5,39.5,0,0,0-6.94-24.38c-6.16-8.69-14.32-12.24-18.57-14A48.56,48.56,0,0,0,550,24H461.37V153.05h50.52V116.17A234.51,234.51,0,0,1,530,133c4.19,4.34,6.64,7.23,11.62,11,7.66,5.79,13.11,7.46,16,8.15a36.57,36.57,0,0,0,7.83.94H641V107.83Zm-25.08-39a8.56,8.56,0,0,1-2.11,5.51,8.84,8.84,0,0,1-6.92,2.75H512.78V59.58h28a9.15,9.15,0,0,1,6.91,3.31A8.89,8.89,0,0,1,549.47,68.56Z" transform="translate(-21 -24)"/>
      <path class="cls-1" d="M581.37,244.65H641V204H556.48a45.06,45.06,0,0,0-14.14,4.5,39.16,39.16,0,0,0-11.88,8.84c-7.89,9-8.29,20.22-8.24,24.22a45.78,45.78,0,0,0,3.57,16.77c1.26,2.88,3.3,7,9.32,13.83.26.31,2.47,2.47,6.82,6.85a27.08,27.08,0,0,1,3.22,4.33c1.5,2.41,1.55,3.17,1.26,3.57s-2.07.73-2.75.65c-34.23,0-16.23.08-50.46.08l-17.56-.07a5.21,5.21,0,0,1-3.56-1.53,3.4,3.4,0,0,1-1.09-2c-.06-2.07,3.89-3.76,5.07-4.31,9.49-4.38,15.3-15.8,16.12-17.43a31.46,31.46,0,0,0,3.16-16.17,39.45,39.45,0,0,0-6.95-24.38c-6.15-8.68-14.31-12.23-18.56-14a48.51,48.51,0,0,0-18.7-3.74H362.46v129H413V296.18A238.59,238.59,0,0,1,431.05,313c4.19,4.35,6.64,7.23,11.62,11,7.66,5.79,13.11,7.46,16,8.15a36,36,0,0,0,7.83.95h97.4c2.61-.08,22.44-1,34-17.18a40.45,40.45,0,0,0,7.2-20.72,39.26,39.26,0,0,0,.06-5.16,42.83,42.83,0,0,0-7-20.35,44.66,44.66,0,0,0-7.71-9.22A138.45,138.45,0,0,1,579,248.63c-.48-.54-1.46-1.66-1.14-2.59C578.33,244.78,580.85,244.67,581.37,244.65Zm-130.81,3.92a8.58,8.58,0,0,1-2.11,5.52,8.84,8.84,0,0,1-6.92,2.75H413.87V239.59h27.95a9.22,9.22,0,0,1,6.91,3.32A8.87,8.87,0,0,1,450.56,248.57Z" transform="translate(-21 -24)"/>
      <path class="cls-1" d="M312.56,204H241.07l-38,129h46.23l5.49-19.2h44.72l6.82,19.2H352ZM266.83,278.5l11.06-35.37,11.05,35.37Z" transform="translate(-21 -24)"/>
    </g>
  </g>
  <g id="Warstwa_5" data-name="Warstwa 5">
    <g>
      <g>
        <path class="cls-1" d="M458.08,182.55a14.54,14.54,0,0,0-4.8-7.6,10.6,10.6,0,0,0,2.34-6.65c-.1-5.11-4.36-8.26-5.35-9A18.22,18.22,0,0,0,439.35,156a47.18,47.18,0,0,0-6.05.59,22.58,22.58,0,0,1-4.19.24,19.68,19.68,0,0,1-2.59-.29c.06,23.48.06,40.64,0,41.58a2.4,2.4,0,0,1-.46,1.27,2.36,2.36,0,0,1-.77.61h19.07a16.89,16.89,0,0,0,5.18-1.49C455.59,195.6,459.49,188.89,458.08,182.55Zm-13.41,6.76a7,7,0,0,1-2.92,1h-4.52V165.51h3a5.92,5.92,0,0,1,2.48.7,5,5,0,0,1,2.47,5.13,6,6,0,0,1-4.17,4.48c.59.23,4.79,1.94,5.91,5.92C447.54,183.91,447.44,187.46,444.67,189.31Z" transform="translate(-21 -24)"/>
        <path class="cls-1" d="M497.22,156.84a2.56,2.56,0,0,1,.77.62,2,2,0,0,1,.46,1.25c-.05,22.24-.1,38.45-.1,39.39a2,2,0,0,1-.38,1.27,2.29,2.29,0,0,1-.73.61h28.35a2.9,2.9,0,0,1-.37-.61,2.74,2.74,0,0,1-.26-1.27V190a1.87,1.87,0,0,1-1,1.32,2.17,2.17,0,0,1-1,.24H509.5V158.72a1.89,1.89,0,0,1,.48-1.26,2.27,2.27,0,0,1,.94-.61Z" transform="translate(-21 -24)"/>
        <path class="cls-1" d="M591.86,163.32c-7.91-7.45-18.57-7.52-20.31-7.51a30.55,30.55,0,0,0-17.81,5.56,22.78,22.78,0,0,0-9.45,16.79,22.12,22.12,0,0,0,8.78,17.3c7.61,5.9,16.55,5.89,18.52,5.84s10.9-.22,18.41-6.13a22.71,22.71,0,0,0,8.89-17A22,22,0,0,0,591.86,163.32Zm-9,24.46a17.34,17.34,0,0,1-22.15.55,11.9,11.9,0,0,1,0-19.54,17.74,17.74,0,0,1,10.51-3.59,18,18,0,0,1,10.89,3.54,11.73,11.73,0,0,1,.7,19Z" transform="translate(-21 -24)"/>
        <path class="cls-1" d="M527.77,156.84a2.76,2.76,0,0,1,.57.63,2.52,2.52,0,0,1,.43,1.21V198.1a2.54,2.54,0,0,1-.45,1.28,3.07,3.07,0,0,1-.55.61H540.7a3.12,3.12,0,0,1-.49-.59,2.42,2.42,0,0,1-.35-1.3V158.63a2.14,2.14,0,0,1,.41-1.16,2.38,2.38,0,0,1,.67-.63Z" transform="translate(-21 -24)"/>
        <path class="cls-1" d="M375.73,200,390,200a3.23,3.23,0,0,1-.81-.62,2.64,2.64,0,0,1-.66-1.27,33,33,0,0,0-1.78-6.86c-1.13-3-2-5.21-4.1-7.36a17.78,17.78,0,0,0-8.55-4.6c.7-.41,5.9-3.55,6.43-9.32s-4.24-9.71-5-10.35c-5.29-4.2-12.72-4-15.3-3.37a25.22,25.22,0,0,1-2.67.49,22,22,0,0,1-5.13.07,20.16,20.16,0,0,1-2.23-.41q0,20.85-.05,41.7a2.34,2.34,0,0,1-.73,1.9h12.4a2.43,2.43,0,0,1-.67-.61,2.18,2.18,0,0,1-.47-1.27V182.6c1.26.15,8,1,12.46,6.29a14.32,14.32,0,0,1,3.44,9.17,3,3,0,0,1-.36,1.3A3.65,3.65,0,0,1,375.73,200ZM360.91,175V164.69c4.84-.53,8.5,2.59,8.44,5.25S365.64,175.49,360.91,175Z" transform="translate(-21 -24)"/>
        <path class="cls-1" d="M391.24,156.84a2.64,2.64,0,0,1,.52.63,2.75,2.75,0,0,1,.42,1.25V198.1a3.4,3.4,0,0,1-.69,1.89h28.78v-9.43a5.16,5.16,0,0,1-1.56,1,6.08,6.08,0,0,1-2.12.49H403v-9.31h9.7a3.3,3.3,0,0,1,1.37.41,2.51,2.51,0,0,1,.88.8V173.09a3,3,0,0,1-.89.8,3.75,3.75,0,0,1-1.36.46h-9.79v-9.13h14.24a5.2,5.2,0,0,1,1.82.48,4.49,4.49,0,0,1,1.53,1.2V156.82Z" transform="translate(-21 -24)"/>
        <path class="cls-1" d="M463.18,156.84a2.92,2.92,0,0,1,.53.63,2.84,2.84,0,0,1,.41,1.25V198.1a3.4,3.4,0,0,1-.69,1.89h28.78v-9.43a5.16,5.16,0,0,1-1.56,1,6.08,6.08,0,0,1-2.11.49H474.91v-9.31h9.7a3.37,3.37,0,0,1,1.38.41,2.55,2.55,0,0,1,.87.8V173.09a3,3,0,0,1-.89.8,3.7,3.7,0,0,1-1.36.46h-9.79v-9.13h14.24a5.2,5.2,0,0,1,1.82.48,4.49,4.49,0,0,1,1.53,1.2V156.82Z" transform="translate(-21 -24)"/>
        <path class="cls-1" d="M602.12,156.83a3,3,0,0,1,.53.61,2.68,2.68,0,0,1,.42,1.28q0,19.69,0,39.38a2.82,2.82,0,0,1-.32,1.27,3.2,3.2,0,0,1-.44.62h12.22a3.83,3.83,0,0,1-.48-.62,2.82,2.82,0,0,1-.39-1.25l0-21.85q7.43,11,14.84,21.92a2.66,2.66,0,0,1,.47,1.18,3.72,3.72,0,0,1,0,.57l12,.06a2.67,2.67,0,0,1-.51-.63,2.43,2.43,0,0,1-.34-1.23V158.72a2.42,2.42,0,0,1,.35-1.26,2.87,2.87,0,0,1,.53-.62H628.66a2.3,2.3,0,0,1,.53.6,2.38,2.38,0,0,1,.35,1.27q0,11.58,0,23.17l-14.84-23.14a3,3,0,0,1-.58-1.3,3.17,3.17,0,0,1,0-.6Z" transform="translate(-21 -24)"/>
      </g>
      <g>
        <path class="cls-1" d="M174.92,182.55a14.54,14.54,0,0,0-4.8-7.6,10.65,10.65,0,0,0,2.35-6.65c-.11-5.11-4.36-8.26-5.36-9A18.22,18.22,0,0,0,156.19,156a47.43,47.43,0,0,0-6.05.59,22.52,22.52,0,0,1-4.19.24,19.89,19.89,0,0,1-2.59-.29c.06,23.48.07,40.64,0,41.58a2.4,2.4,0,0,1-.46,1.27,2.34,2.34,0,0,1-.76.61h19.06a16.89,16.89,0,0,0,5.18-1.49C172.43,195.6,176.34,188.89,174.92,182.55Zm-13.41,6.76a6.93,6.93,0,0,1-2.92,1h-4.52V165.51h3a5.88,5.88,0,0,1,2.48.7,5,5,0,0,1,2.48,5.13,6,6,0,0,1-4.18,4.48c.59.23,4.79,1.94,5.91,5.92C164.38,183.91,164.28,187.46,161.51,189.31Z" transform="translate(-21 -24)"/>
        <path class="cls-1" d="M179.79,156.84a2.55,2.55,0,0,1,.76.62,2.12,2.12,0,0,1,.47,1.25c-.06,22.24-.11,38.45-.1,39.39a2,2,0,0,1-.39,1.27,2.19,2.19,0,0,1-.73.61h28.35a3.39,3.39,0,0,1-.37-.61,2.88,2.88,0,0,1-.26-1.27V190a1.84,1.84,0,0,1-1,1.32,2.12,2.12,0,0,1-1,.24H192.06V158.72a1.86,1.86,0,0,1,.49-1.26,2.21,2.21,0,0,1,.94-.61Z" transform="translate(-21 -24)"/>
        <path class="cls-1" d="M243,200l13.6,0a6.86,6.86,0,0,1-.62-.6,5,5,0,0,1-.83-1.3q-8.67-19.68-17.32-39.36a2.58,2.58,0,0,1-.43-1.19,2.5,2.5,0,0,1,.05-.7l-11.73,0a2.29,2.29,0,0,1,.74.63,1.85,1.85,0,0,1,.37,1.26,5.65,5.65,0,0,1-.19,1.1,6.21,6.21,0,0,1-.57,1.37l-16.54,36.88a6.83,6.83,0,0,1-.92,1.29,7.09,7.09,0,0,1-.63.61h13.83a6,6,0,0,1-.21-.64,5.44,5.44,0,0,1,.19-3.16l1.14-3.05h18.84l1.28,3a5,5,0,0,1,.19,3.23A6.42,6.42,0,0,1,243,200Zm-16.67-14.86q3.06-7.74,6.13-15.5,3,7.75,6,15.5Z" transform="translate(-21 -24)"/>
        <path class="cls-1" d="M294.2,156v13.67a14.76,14.76,0,0,0-4.18-2.93,17.25,17.25,0,0,0-7.75-1.59,16.43,16.43,0,0,0-10.48,3.94,11.88,11.88,0,0,0-4,9.48,12.55,12.55,0,0,0,5.36,10.51,16.71,16.71,0,0,0,9.91,2.83,17.42,17.42,0,0,0,6.35-.84,15.77,15.77,0,0,0,4.8-2.53q0,6.33,0,12.66a3.48,3.48,0,0,0-1.3-.74,3.91,3.91,0,0,0-1.48-.2c-1.21.23-2.53.43-4,.58a47.54,47.54,0,0,1-5.53.22,28.76,28.76,0,0,1-16.69-5,21.65,21.65,0,0,1-9.17-17.52A20.36,20.36,0,0,1,262.71,163c7.39-6.93,17.21-7,18.78-7a34.67,34.67,0,0,1,4.06.25c1.15.14,1.65.26,2.79.39a33.44,33.44,0,0,0,4,.23,2.64,2.64,0,0,0,1.2-.29A2.21,2.21,0,0,0,294.2,156Z" transform="translate(-21 -24)"/>
        <path class="cls-1" d="M298.63,156.85a2.39,2.39,0,0,1,1,.62,1.9,1.9,0,0,1,.54,1.25c.14,22.13.15,38.34,0,39.38a2.45,2.45,0,0,1-.62,1.33,2.51,2.51,0,0,1-.94.55h13.6a2.8,2.8,0,0,1-.77-.53,2.53,2.53,0,0,1-.73-1.35V182.55a20.22,20.22,0,0,1,11.59,5.88,15,15,0,0,1,4.1,9.67,3.64,3.64,0,0,1-.14,1.24,3.56,3.56,0,0,1-.25.64h12.51a5.38,5.38,0,0,1-.61-.63,6.54,6.54,0,0,1-.78-1.24c-1.25-2.71-3-8.59-3-8.59a19.35,19.35,0,0,0-5-7.94,20.58,20.58,0,0,0-10.15-4.86l16.72-18a8.18,8.18,0,0,1,2.23-1.85H321.49a2.3,2.3,0,0,1,.58.66,2.18,2.18,0,0,1,.31,1.21c-.07.15-.15.3-.25.47a3.91,3.91,0,0,1-.39.52L311,173.33l.05-14.6a2.2,2.2,0,0,1,.6-1.24,2.57,2.57,0,0,1,1-.64Z" transform="translate(-21 -24)"/>
      </g>
      <g>
        <path class="cls-1" d="M99.58,156.84a2.64,2.64,0,0,1,.52.63,2.75,2.75,0,0,1,.42,1.25V198.1a3.4,3.4,0,0,1-.69,1.89h28.78v-9.43a5.29,5.29,0,0,1-1.56,1,6.13,6.13,0,0,1-2.12.49H111.31v-9.31H121a3.29,3.29,0,0,1,1.38.41,2.51,2.51,0,0,1,.88.8V173.09a3,3,0,0,1-.89.8,3.73,3.73,0,0,1-1.37.46h-9.78v-9.13h14.24a5.11,5.11,0,0,1,1.81.48,4.45,4.45,0,0,1,1.54,1.2V156.82Z" transform="translate(-21 -24)"/>
        <path class="cls-1" d="M94.39,198.1V158.63a2.19,2.19,0,0,1,.4-1.16,2.68,2.68,0,0,1,.67-.63H82.3a3.31,3.31,0,0,1,.57.63,2.76,2.76,0,0,1,.43,1.21v14.15H73.22v-14.2a2.19,2.19,0,0,1,.4-1.16,2.52,2.52,0,0,1,.67-.63H61.12a3,3,0,0,1,.58.63,2.76,2.76,0,0,1,.43,1.21V198.1a2.54,2.54,0,0,1-.45,1.28,2.81,2.81,0,0,1-.56.61H74.06a2.51,2.51,0,0,1-.49-.59,2.33,2.33,0,0,1-.35-1.3V183.92H83.3V198.1a2.54,2.54,0,0,1-.45,1.28,3.07,3.07,0,0,1-.55.61H95.23a2.51,2.51,0,0,1-.49-.59A2.33,2.33,0,0,1,94.39,198.1Z" transform="translate(-21 -24)"/>
        <path class="cls-1" d="M39.76,156.84l-18.76,0V166.9a4.49,4.49,0,0,1,1.53-1.2,5.22,5.22,0,0,1,1.81-.48H34.4V198.1a3.4,3.4,0,0,1-.69,1.89h12.1a3.25,3.25,0,0,1-.33-.62,3.76,3.76,0,0,1-.29-1.27q0-16.44-.08-32.88h10a5.2,5.2,0,0,1,1.82.48,4.49,4.49,0,0,1,1.53,1.2V156.82Z" transform="translate(-21 -24)"/>
      </g>
    </g>
  </g>
</svg>
